HIERARCHY
ROOT Hips
{
	OFFSET 0.000000 0.000000 0.000000
	CHANNELS 6 Xposition Yposition Zposition Zrotation Yrotation Xrotation 
	JOINT LHipJoint
	{
		OFFSET 0.000000 0.000000 0.000000
		CHANNELS 3 Zrotation Yrotation Xrotation
		JOINT LeftUpLeg
		{
			OFFSET 1.363060 -1.794630 0.839290
			CHANNELS 3 Zrotation Yrotation Xrotation
			JOINT LeftLeg
			{
				OFFSET 2.448110 -6.726130 0.000000
				CHANNELS 3 Zrotation Yrotation Xrotation
				JOINT LeftFoot
				{
					OFFSET 2.562200 -7.039590 0.000000
					CHANNELS 3 Zrotation Yrotation Xrotation
					JOINT LeftToeBase
					{
						OFFSET 0.157640 -0.433110 2.322550
						CHANNELS 3 Zrotation Yrotation Xrotation
						End Site
						{
							OFFSET 0.000000 0.000000 0.000000
						}
					}
				}
			}
		}
	}
	JOINT RHipJoint
	{
		OFFSET 0.000000 0.000000 0.000000
		CHANNELS 3 Zrotation Yrotation Xrotation
		JOINT RightUpLeg
		{
			OFFSET -1.305520 -1.794630 0.839290
			CHANNELS 3 Zrotation Yrotation Xrotation
			JOINT RightLeg
			{
				OFFSET -2.542530 -6.985550 0.000000
				CHANNELS 3 Zrotation Yrotation Xrotation
				JOINT RightFoot
				{
					OFFSET -2.568260 -7.056230 0.000000
					CHANNELS 3 Zrotation Yrotation Xrotation
					JOINT RightToeBase
					{
						OFFSET -0.164730 -0.452590 2.363150
						CHANNELS 3 Zrotation Yrotation Xrotation
						End Site
						{
							OFFSET 0.000000 0.000000 0.000000
						}
					}
				}
			}
		}
	}
	JOINT LowerBack
	{
		OFFSET 0.000000 0.000000 0.000000
		CHANNELS 3 Zrotation Yrotation Xrotation
		JOINT Spine
		{
			OFFSET 0.028270 2.035590 -0.193380
			CHANNELS 3 Zrotation Yrotation Xrotation
			JOINT Spine1
			{
				OFFSET 0.056720 2.048850 -0.042750
				CHANNELS 3 Zrotation Yrotation Xrotation
				JOINT Neck
				{
					OFFSET 0.000000 0.000000 0.000000
					CHANNELS 3 Zrotation Yrotation Xrotation
					JOINT Neck1
					{
						OFFSET -0.054170 1.746240 0.172020
						CHANNELS 3 Zrotation Yrotation Xrotation
						JOINT Head
						{
							OFFSET 0.104070 1.761360 -0.123970
							CHANNELS 3 Zrotation Yrotation Xrotation
							End Site
							{
								OFFSET 0.000000 0.000000 0.000000
							}
						}
					}
				}
				JOINT LeftShoulder
				{
					OFFSET 0.000000 0.000000 0.000000
					CHANNELS 3 Zrotation Yrotation Xrotation
					JOINT LeftArm
					{
						OFFSET 3.362410 1.200890 -0.311210
						CHANNELS 3 Zrotation Yrotation Xrotation
						JOINT LeftForeArm
						{
							OFFSET 4.983000 -0.000000 -0.000000
							CHANNELS 3 Zrotation Yrotation Xrotation
							JOINT LeftHand
							{
								OFFSET 3.483560 -0.000000 -0.000000
								CHANNELS 3 Zrotation Yrotation Xrotation
								JOINT LeftFingerBase
								{
									OFFSET 0.000000 0.000000 0.000000
									CHANNELS 3 Zrotation Yrotation Xrotation
									JOINT LeftHandIndex1
									{
										OFFSET 0.715260 -0.000000 -0.000000
										CHANNELS 3 Zrotation Yrotation Xrotation
										End Site
										{
											OFFSET 0.000000 0.000000 0.000000
										}
									}
								}
								JOINT LThumb
								{
									OFFSET 0.000000 0.000000 0.000000
									CHANNELS 3 Zrotation Yrotation Xrotation
									End Site
									{
										OFFSET 0.000000 0.000000 0.000000
									}
								}
							}
						}
					}
				}
				JOINT RightShoulder
				{
					OFFSET 0.000000 0.000000 0.000000
					CHANNELS 3 Zrotation Yrotation Xrotation
					JOINT RightArm
					{
						OFFSET -3.136600 1.374050 -0.404650
						CHANNELS 3 Zrotation Yrotation Xrotation
						JOINT RightForeArm
						{
							OFFSET -5.241900 -0.000000 -0.000000
							CHANNELS 3 Zrotation Yrotation Xrotation
							JOINT RightHand
							{
								OFFSET -3.444170 -0.000000 -0.000000
								CHANNELS 3 Zrotation Yrotation Xrotation
								JOINT RightFingerBase
								{
									OFFSET 0.000000 0.000000 0.000000
									CHANNELS 3 Zrotation Yrotation Xrotation
									JOINT RightHandIndex1
									{
										OFFSET -0.622530 -0.000000 -0.000000
										CHANNELS 3 Zrotation Yrotation Xrotation
										End Site
										{
											OFFSET 0.000000 0.000000 0.000000
										}
									}
								}
								JOINT RThumb
								{
									OFFSET 0.000000 0.000000 0.000000
									CHANNELS 3 Zrotation Yrotation Xrotation
									End Site
									{
										OFFSET 0.000000 0.000000 0.000000
									}
								}
							}
						}
					}
				}
			}
		}
	}
}
MOTION
Frames: 5
Frame Time: 0.008333
4.783451 17.617013 3.675689 -3.181240 18.027144 6.493193 -0.115176 1.105932 0.255183 -5.992471 -8.614992 -22.709445 2.882064 13.417028 38.523816 1.206415 -1.199318 -8.466942 4.480700 -12.773900 -38.528000 -2.107838 -3.252480 1.631547 4.756684 5.087386 -0.671594 -2.239842 -9.806160 30.747030 4.086576 -16.363995 3.253405 -0.333400 -3.710600 10.263900 6.315166 1.629523 6.292113 1.795690 2.322735 -4.091836 4.328650 2.237619 -10.045640 10.956995 19.339852 3.791555 -5.734958 27.705086 -10.014648 -13.588500 8.707900 -6.024500 -3.335683 -12.733888 1.793124 -14.670635 -14.386229 -39.245168 109.104055 -62.814579 -89.862401 3.057677 -3.121718 -75.489044 40.176501 18.424552 19.415300 -7.125000 0.000000 0.000000 15.910500 58.736700 5.430200 11.386420 9.563541 5.588570 49.681564 16.641194 2.983017 -124.991166 50.520842 -97.392486 -1.857709 2.850365 -29.063651 -27.560951 2.185935 0.853600 7.125000 0.000000 0.000000 -0.670200 -31.833700 -0.215900 
4.907405 17.658709 3.714502 -3.278497 18.409527 6.542605 -0.182828 1.094267 0.293717 -6.210981 -8.637177 -22.436371 2.785180 13.258849 38.077189 1.488250 -2.327046 -8.066503 3.962100 -12.109800 -36.121600 -2.091125 -3.141029 1.561924 5.281698 5.137354 -1.476325 -2.386073 -10.099644 31.757900 3.613238 -14.705556 2.833873 -0.165800 -2.623200 7.231500 6.212650 1.397072 6.358563 1.832772 2.027756 -4.079702 4.540030 2.084732 -9.994689 10.972428 19.267854 3.877645 -5.816060 27.653753 -9.882125 -13.727100 8.710800 -5.938900 -3.256636 -12.741030 1.743374 -14.349230 -14.877795 -39.612487 108.320106 -62.989189 -89.395621 3.089608 -3.155883 -75.159274 40.083132 18.341025 19.344500 -7.125000 0.000000 0.000000 15.795200 58.687200 5.370800 11.437182 9.556968 5.624926 50.127687 16.127890 3.114027 -125.769529 50.204390 -97.973051 -1.854483 2.878739 -29.350514 -26.042329 2.582998 0.595000 7.125000 0.000000 0.000000 0.519400 -31.340800 0.173500 
5.033109 17.709567 3.764228 -2.983468 18.716060 6.778670 -0.266688 1.082359 0.341105 -6.838294 -8.699232 -22.145827 2.676258 13.094123 37.647335 1.724358 -3.375222 -7.595890 3.164300 -10.956300 -32.132800 -2.070141 -3.041406 1.503493 5.406762 5.163249 -2.415276 -2.538671 -10.378555 32.684025 3.148325 -13.092831 2.602067 -0.069900 -1.706200 4.694400 5.711834 1.237277 6.357535 1.831062 1.785571 -4.095010 4.786150 1.983880 -10.129614 10.965863 19.191818 4.290695 -5.853114 27.525211 -9.852215 -13.879800 8.660600 -6.062900 -3.227637 -12.789935 1.711881 -14.105291 -15.393338 -39.737279 107.507916 -63.117326 -88.890174 3.114618 -3.191292 -74.826764 40.070512 18.146330 19.241600 -7.125000 0.000000 0.000000 15.774800 58.525800 5.302100 11.452841 9.509071 5.654076 50.805413 15.313553 3.216903 -126.700709 49.814504 -98.669295 -1.846123 2.899282 -29.722582 -24.286947 2.780781 0.444100 7.125000 0.000000 0.000000 1.888000 -31.060000 0.643500 
5.156239 17.751880 3.810865 -2.840239 19.052777 6.892877 -0.340880 1.081558 0.395224 -7.331415 -8.710665 -21.837375 2.559536 12.934833 37.228079 1.779523 -3.714859 -7.196165 2.826600 -10.408900 -30.311200 -2.046215 -2.945315 1.448261 5.719437 5.233441 -3.273368 -2.682607 -10.639048 33.546288 2.735396 -11.668985 2.468989 -0.013900 -0.761400 2.092600 5.432136 1.089204 6.547366 1.827793 1.602784 -4.121121 4.909723 1.885885 -10.290991 10.775810 19.128397 4.273517 -5.657845 27.285849 -9.649984 -13.748300 8.633600 -6.001500 -3.193366 -12.864995 1.667865 -13.916696 -15.997467 -39.584297 106.661593 -63.161566 -88.324378 3.119742 -3.250713 -74.120845 39.861669 17.448775 18.647600 -7.125000 0.000000 0.000000 15.454000 57.718900 4.889200 11.461815 9.508777 5.650454 51.371417 14.459984 3.278793 -127.402242 49.509769 -99.182705 -1.834356 2.917005 -29.825479 -23.077627 3.228773 0.219000 7.125000 0.000000 0.000000 2.816800 -30.533500 0.996200 
5.272369 17.779883 3.849781 -2.991836 19.454402 6.868724 -0.398699 1.075187 0.420436 -7.507177 -8.634110 -21.529119 2.449317 12.785406 36.808386 1.784618 -3.836769 -6.751891 2.909100 -10.546500 -30.765100 -2.029215 -2.843724 1.358391 6.377690 5.264197 -4.068742 -2.806162 -10.884427 34.339538 2.420278 -10.567902 2.136452 -0.000100 -0.068800 0.189000 5.404869 0.904953 6.556988 1.869462 1.366966 -4.053395 5.134532 1.748121 -9.877880 10.496986 19.174296 3.970290 -5.656707 27.340726 -9.663066 -13.688300 8.653000 -5.969400 -3.110664 -12.860382 1.637854 -13.684035 -16.736158 -39.892367 105.815319 -63.288387 -87.788428 3.140855 -3.283607 -73.428876 39.578111 17.439569 18.503200 -7.125000 0.000000 0.000000 15.079800 57.700300 4.760400 11.484125 9.441752 5.665691 51.585721 14.049711 3.182078 -128.035860 49.273462 -99.610638 -1.819268 2.940403 -29.861723 -22.120590 4.090293 -0.145500 7.125000 0.000000 0.000000 3.521100 -29.584200 1.325900 
